<?xml version="1.0" encoding="UTF-8"?>
<svg width="126px" height="120px" viewBox="0 0 126 120" version="1.1" xmlns="http://www.w3.org/2000/svg" xmlns:xlink="http://www.w3.org/1999/xlink">
    <!-- Generator: Sketch 53.2 (72643) - https://sketchapp.com -->
    <title>Group 7</title>
    <desc>Created with Sketch.</desc>
    <g id="Page-1" stroke="none" stroke-width="1" fill="none" fill-rule="evenodd">
        <g id="Group-7">
            <g id="Group-4" transform="translate(21.789474, 0.000000)" fill="#FFFFFF">
                <polygon id="Rectangle" transform="translate(17.526316, 41.334085) rotate(-45.000000) translate(-17.526316, -41.334085) " points="5.68421053 29.4919799 29.4039265 29.4564745 29.3684211 53.1761905 5.6487051 53.2116959"></polygon>
                <polygon id="Rectangle" transform="translate(41.210526, 17.578864) rotate(-45.000000) translate(-41.210526, -17.578864) " points="29.3684211 5.73675856 53.088137 5.70125313 53.0526316 29.4209691 29.3329156 29.4564745"></polygon>
                <polygon id="Rectangle" transform="translate(64.894737, 41.334085) rotate(-45.000000) translate(-64.894737, -41.334085) " points="53.0526316 29.4919799 76.7723475 29.4564745 76.7368421 53.1761905 53.0171261 53.2116959"></polygon>
            </g>
            <path d="M39.0931579,85.6613283 L29.2784211,85.6613283 L27.6536842,89.3196324 L24.1389474,89.3196324 L34.1857895,65.9397435 L44.2657895,89.3196324 L40.6515789,89.3196324 L39.0931579,85.6613283 Z M37.7005263,82.6349131 L34.1857895,74.5201295 L30.6710526,82.6349131 L37.7005263,82.6349131 Z M62.6021053,66.0727728 L54.9426316,79.7082698 L62.4694737,89.3196324 L58.6894737,89.3196324 L53.2184211,82.9342289 L49.4715789,89.3196324 L46.4542105,89.3196324 L46.4542105,66.0727728 L49.4715789,66.0727728 L49.4715789,83.3000593 L58.8884211,66.0727728 L62.6021053,66.0727728 Z M78.1863158,66.0062581 L81.4026316,66.0062581 L81.4026316,81.1383342 C81.3031579,85.6613283 77.6557895,89.2863751 73.08,89.2863751 C70.1621053,89.2863751 67.6421053,87.8230535 66.15,85.5615564 C66.15,85.5615564 64.7905263,83.5993751 64.7905263,81.1383342 L64.7905263,66.0062581 L67.9736842,66.0062581 L67.9736842,80.9720476 C67.9736842,83.798919 70.2615789,86.0936734 73.08,86.0936734 C75.8984211,86.0936734 78.1863158,83.798919 78.1863158,80.9720476 L78.1863158,66.0062581 Z M98.6778947,66.0395155 L101.728421,66.0395155 L101.728421,89.3196324 L98.0810526,89.3196324 L87.9015789,71.7265155 L87.9015789,89.3196324 L84.7847368,89.3196324 L84.7847368,66.0395155 L88.4652632,66.0395155 L98.6778947,84.0649774 L98.6778947,66.0395155 Z" id="AKUN" fill="#FFFFFF" fill-rule="nonzero"></path>
            <g id="Group-3" transform="translate(-0.000000, 95.971094)">
                <rect id="Rectangle" fill="#FFFFFF" x="0" y="0" width="126" height="23.7552214"></rect>
                <path d="M12.0939813,16.1535505 L10.7617444,16.1535505 L10.7617444,6.02046392 L12.0939813,6.02046392 L12.0939813,16.1535505 Z M22.2939196,16.1535505 L20.954744,16.1535505 L15.8686523,8.34494945 L15.8686523,16.1535505 L14.5294768,16.1535505 L14.5294768,6.02046392 L15.8686523,6.02046392 L20.9686215,13.8638627 L20.9686215,6.02046392 L22.2939196,6.02046392 L22.2939196,16.1535505 Z M31.4391704,7.12007085 L28.1918431,7.12007085 L28.1918431,16.1535505 L26.866545,16.1535505 L26.866545,7.12007085 L23.6261565,7.12007085 L23.6261565,6.02046392 L31.4391704,6.02046392 L31.4391704,7.12007085 Z M38.6485146,11.4697818 L34.2701737,11.4697818 L34.2701737,15.0609032 L39.3562654,15.0609032 L39.3562654,16.1535505 L32.9379369,16.1535505 L32.9379369,6.02046392 L39.2868781,6.02046392 L39.2868781,7.12007085 L34.2701737,7.12007085 L34.2701737,10.3771344 L38.6485146,10.3771344 L38.6485146,11.4697818 Z M44.7199065,12.0543829 L42.3468596,12.0543829 L42.3468596,16.1535505 L41.007684,16.1535505 L41.007684,6.02046392 L44.3521536,6.02046392 C45.4901116,6.02046392 46.3655397,6.28028406 46.9784642,6.79993212 C47.5913888,7.31958019 47.8978464,8.07584237 47.8978464,9.06874135 C47.8978464,9.69974258 47.7278492,10.2495405 47.3878495,10.7181517 C47.0478499,11.1867629 46.5748643,11.5370562 45.9688785,11.7690419 L48.3419254,16.0700361 L48.3419254,16.1535505 L46.9125463,16.1535505 L44.7199065,12.0543829 Z M42.3468596,10.9617356 L44.393786,10.9617356 C45.0552819,10.9617356 45.5814639,10.7900687 45.9723479,10.4467298 C46.3632318,10.1033909 46.5586708,9.644066 46.5586708,9.06874135 C46.5586708,8.44237984 46.3724834,7.96217656 46.0001028,7.62811709 C45.6277222,7.29405762 45.0899758,7.12471056 44.3868472,7.12007085 L42.3468596,7.12007085 L42.3468596,10.9617356 Z M57.5288086,16.1535505 L56.189633,16.1535505 L51.1035413,8.34494945 L51.1035413,16.1535505 L49.7643657,16.1535505 L49.7643657,6.02046392 L51.1035413,6.02046392 L56.2035105,13.8638627 L56.2035105,6.02046392 L57.5288086,6.02046392 L57.5288086,16.1535505 Z M65.5985557,13.5089263 L61.3659282,13.5089263 L60.4153218,16.1535505 L59.0414525,16.1535505 L62.8993884,6.02046392 L64.0650956,6.02046392 L67.9299702,16.1535505 L66.5630397,16.1535505 L65.5985557,13.5089263 Z M61.7683748,12.4093194 L65.2030479,12.4093194 L63.482242,7.66987431 L61.7683748,12.4093194 Z M75.3752313,7.12007085 L72.127904,7.12007085 L72.127904,16.1535505 L70.8026059,16.1535505 L70.8026059,7.12007085 L67.5622173,7.12007085 L67.5622173,6.02046392 L75.3752313,6.02046392 L75.3752313,7.12007085 Z M78.3033769,16.1535505 L76.97114,16.1535505 L76.97114,6.02046392 L78.3033769,6.02046392 L78.3033769,16.1535505 Z M88.5102539,11.4141055 C88.5102539,12.4070045 88.343726,13.2734582 88.0106651,14.0134928 C87.6776042,14.7535273 87.2057751,15.3184041 86.5951634,15.7081401 C85.9845518,16.0978762 85.2721823,16.2927413 84.4580335,16.2927413 C83.6623881,16.2927413 82.9569572,16.0967163 82.3417198,15.7046604 C81.7264823,15.3126045 81.2488709,14.7535272 80.9088713,14.0274118 C80.5688717,13.3012965 80.3942486,12.4603607 80.3849969,11.5045795 L80.3849969,10.773828 C80.3849969,9.79948792 80.5538377,8.93883372 80.8915245,8.19183963 C81.2292112,7.44484553 81.7068226,6.87300925 82.3243729,6.47631363 C82.9419233,6.07961801 83.6485106,5.88127317 84.444156,5.88127317 C85.253679,5.88127317 85.967205,6.07729818 86.5847553,6.46935409 C87.2023057,6.86141 87.6776042,7.42976654 88.0106651,8.17444078 C88.343726,8.91911502 88.5102539,9.78556877 88.5102539,10.773828 L88.5102539,11.4141055 Z M87.1849558,10.759909 C87.1849558,9.55822282 86.9444154,8.63609332 86.4633275,7.99349281 C85.9822396,7.3508923 85.3091892,7.02959686 84.444156,7.02959686 C83.6022522,7.02959686 82.9396097,7.3508923 82.4562089,7.99349281 C81.972808,8.63609332 81.7241726,9.52806512 81.710295,10.669435 L81.710295,11.4141055 C81.710295,12.5786739 81.9543047,13.493844 82.4423314,14.159643 C82.9303581,14.8254421 83.6022521,15.1583367 84.4580335,15.1583367 C85.3184408,15.1583367 85.9845525,14.8440007 86.4563888,14.2153193 C86.928225,13.586638 87.1710783,12.6853869 87.1849558,11.511539 L87.1849558,10.759909 Z M98.273052,16.1535505 L96.9338764,16.1535505 L91.8477847,8.34494945 L91.8477847,16.1535505 L90.5086092,16.1535505 L90.5086092,6.02046392 L91.8477847,6.02046392 L96.9477539,13.8638627 L96.9477539,6.02046392 L98.273052,6.02046392 L98.273052,16.1535505 Z M106.342799,13.5089263 L102.110172,13.5089263 L101.159565,16.1535505 L99.7856959,16.1535505 L103.643632,6.02046392 L104.809339,6.02046392 L108.674214,16.1535505 L107.307283,16.1535505 L106.342799,13.5089263 Z M102.512618,12.4093194 L105.947291,12.4093194 L104.226485,7.66987431 L102.512618,12.4093194 Z M111.373381,15.0609032 L116.161107,15.0609032 L116.161107,16.1535505 L110.034205,16.1535505 L110.034205,6.02046392 L111.373381,6.02046392 L111.373381,15.0609032 Z" id="INTERNATIONAL" fill="#393939" fill-rule="nonzero"></path>
            </g>
        </g>
    </g>
</svg>